<svg width="24" height="24" viewBox="0 0 24 24" fill="#17e86b" xmlns="http://www.w3.org/2000/svg"><g clip-path="url(#clip0_151_1233)"><path fill-rule="evenodd" clip-rule="evenodd" d="M12.0001 2C13.7511 2 15.1901 2.592 16.1681 3.159C17.4921 3.926 18.0001 5.369 18.0001 6.657V8.367C18.3971 8.62 18.7671 8.867 19.0951 9.095L19.6601 9.494L19.7601 9.566C20.0511 9.778 20.3411 9.993 20.6231 10.218C21.0491 10.558 21.1231 11.198 20.7811 11.625C20.6154 11.8319 20.3743 11.9646 20.1108 11.9938C19.8474 12.0231 19.5831 11.9465 19.3761 11.781C18.9286 11.4287 18.4697 11.0911 18.0001 10.769V17.586C18.0001 18.7567 17.535 19.8794 16.7072 20.7072C15.8794 21.535 14.7567 22 13.5861 22H10.4141C9.24339 22 8.12067 21.535 7.29288 20.7072C6.4651 19.8794 6.00005 18.7567 6.00005 17.586V10.769C5.53305 11.093 5.07005 11.426 4.62505 11.781C4.41792 11.9468 4.15342 12.0234 3.88974 11.9942C3.62607 11.9649 3.38481 11.8321 3.21905 11.625C3.05329 11.4179 2.9766 11.1534 3.00586 10.8897C3.03512 10.626 3.16792 10.3848 3.37505 10.219C3.65905 9.995 3.94805 9.779 4.24005 9.566L4.66605 9.261C5.05005 8.991 5.50405 8.683 6.00005 8.368V6.657C6.00005 5.368 6.50805 3.926 7.83205 3.159C8.81005 2.592 10.2501 2 12.0001 2ZM16.0001 11.414C15.3911 12.023 15.0001 12.779 15.0001 13.657V17C15.0001 17.5304 14.7893 18.0391 14.4143 18.4142C14.0392 18.7893 13.5305 19 13.0001 19H11.0001C10.4696 19 9.96091 18.7893 9.58584 18.4142C9.21077 18.0391 9.00005 17.5304 9.00005 17V13.657C9.00005 12.779 8.60905 12.023 8.00005 11.414V17.586C8.00005 17.903 8.06249 18.2169 8.18381 18.5098C8.30512 18.8027 8.48294 19.0688 8.7071 19.293C8.93126 19.5171 9.19737 19.6949 9.49025 19.8162C9.78313 19.9376 10.097 20 10.4141 20H13.5861C13.9031 20 14.217 19.9376 14.5099 19.8162C14.8027 19.6949 15.0688 19.5171 15.293 19.293C15.5172 19.0688 15.695 18.8027 15.8163 18.5098C15.9376 18.2169 16.0001 17.903 16.0001 17.586V11.414ZM12.0001 4C10.7031 4 9.61005 4.44 8.83505 4.89C8.32305 5.185 8.00005 5.823 8.00005 6.656V7.216C8.36105 7.031 8.72905 6.857 9.09605 6.702C10.0341 6.308 11.0541 6 12.0001 6C12.9461 6 13.9661 6.308 14.9041 6.703C15.2711 6.858 15.6391 7.032 16.0001 7.216V6.656C16.0001 5.824 15.6771 5.186 15.1651 4.889C14.3901 4.44 13.2971 4 12.0001 4Z" fill="black"/></g><defs><clipPath id="clip0_151_1233"><rect width="24" height="24" fill="white"/></clipPath></defs></svg>