<svg width="24" height="24" viewBox="0 0 24 24" fill="none" xmlns="http://www.w3.org/2000/svg">
<path d="M4 21C3.44772 21 3 20.5523 3 20V20C3 19.4477 3.44772 19 4 19V19C4.55228 19 5 18.5523 5 18V4C5 3.44772 5.44772 3 6 3H14.5C14.7761 3 15 3.22386 15 3.5V3.5C15 3.77614 15.2239 4 15.5 4H18C18.5523 4 19 4.44772 19 5V18C19 18.5523 19.4477 19 20 19V19C20.5523 19 21 19.4477 21 20V20C21 20.5523 20.5523 21 20 21H18C17.4477 21 17 20.5523 17 20V7C17 6.44772 16.5523 6 16 6V6C15.4477 6 15 6.44772 15 7V20C15 20.5523 14.5523 21 14 21H4ZM11 13C11.2833 13 11.521 12.904 11.713 12.712C11.905 12.52 12.0007 12.2827 12 12C11.9993 11.7173 11.9033 11.48 11.712 11.288C11.5207 11.096 11.2833 11 11 11C10.7167 11 10.4793 11.096 10.288 11.288C10.0967 11.48 10.0007 11.7173 10 12C9.99933 12.2827 10.0953 12.5203 10.288 12.713C10.4807 12.9057 10.718 13.0013 11 13Z" fill="black"/>
</svg>
