<svg width="601" height="527" viewBox="0 0 601 527" fill="none" xmlns="http://www.w3.org/2000/svg">
<path d="M75.125 75.2861H0C0 220.799 117.735 338.786 262.937 338.786V508.179C262.937 518.531 271.389 527 281.719 527H319.281C329.611 527 338.062 518.531 338.062 508.179V338.786C338.062 193.273 220.328 75.2861 75.125 75.2861Z" fill="#30A626"/>
<path d="M296.157 135.514C341.114 54.6998 427.039 0 525.875 0H601C601 136.338 497.703 248.325 365.413 262.088C352.735 214.211 328.672 171.04 296.157 135.514Z" fill="#F0AE0E"/>
<path d="M296.157 135.514C341.114 54.6998 427.039 0 525.875 0H601C601 136.338 497.703 248.325 365.413 262.088C352.735 214.211 328.672 171.04 296.157 135.514Z"/>
</svg>
